<mxfile host="app.diagrams.net" agent="Mozilla/5.0 (Windows NT 10.0; Win64; x64) AppleWebKit/537.36 (KHTML, like Gecko) Chrome/131.0.0.0 Safari/537.36" version="25.0.3">
  <diagram name="ページ1" id="fjGrCEoOzP5gmyaa5dN7">
    <mxGraphModel dx="834" dy="1905" grid="1" gridSize="10" guides="1" tooltips="1" connect="1" arrows="1" fold="1" page="1" pageScale="1" pageWidth="827" pageHeight="1169" math="0" shadow="0">
      <root>
        <mxCell id="0" />
        <mxCell id="1" parent="0" />
        <mxCell id="somkCivLxH3RYsjKFjZh-2" value="" style="pointerEvents=1;verticalLabelPosition=bottom;shadow=0;dashed=0;align=center;html=1;verticalAlign=top;shape=mxgraph.electrical.resistors.resistor_2;" vertex="1" parent="1">
          <mxGeometry x="240" y="630" width="80" height="20" as="geometry" />
        </mxCell>
        <mxCell id="somkCivLxH3RYsjKFjZh-3" value="" style="pointerEvents=1;verticalLabelPosition=bottom;shadow=0;dashed=0;align=center;html=1;verticalAlign=top;shape=mxgraph.electrical.resistors.resistor_2;" vertex="1" parent="1">
          <mxGeometry x="440" y="630" width="80" height="20" as="geometry" />
        </mxCell>
        <mxCell id="somkCivLxH3RYsjKFjZh-4" value="" style="pointerEvents=1;verticalLabelPosition=bottom;shadow=0;dashed=0;align=center;html=1;verticalAlign=top;shape=mxgraph.electrical.resistors.resistor_2;" vertex="1" parent="1">
          <mxGeometry x="440" y="670" width="80" height="20" as="geometry" />
        </mxCell>
        <mxCell id="somkCivLxH3RYsjKFjZh-5" value="" style="pointerEvents=1;verticalLabelPosition=bottom;shadow=0;dashed=0;align=center;html=1;verticalAlign=top;shape=mxgraph.electrical.resistors.resistor_2;" vertex="1" parent="1">
          <mxGeometry x="440" y="710" width="80" height="20" as="geometry" />
        </mxCell>
        <mxCell id="somkCivLxH3RYsjKFjZh-6" value="" style="pointerEvents=1;verticalLabelPosition=bottom;shadow=0;dashed=0;align=center;html=1;verticalAlign=top;shape=mxgraph.electrical.resistors.resistor_2;" vertex="1" parent="1">
          <mxGeometry x="440" y="750" width="80" height="20" as="geometry" />
        </mxCell>
        <mxCell id="somkCivLxH3RYsjKFjZh-7" value="" style="pointerEvents=1;verticalLabelPosition=bottom;shadow=0;dashed=0;align=center;html=1;verticalAlign=top;shape=mxgraph.electrical.resistors.resistor_2;" vertex="1" parent="1">
          <mxGeometry x="440" y="790" width="80" height="20" as="geometry" />
        </mxCell>
        <mxCell id="somkCivLxH3RYsjKFjZh-8" value="" style="pointerEvents=1;verticalLabelPosition=bottom;shadow=0;dashed=0;align=center;html=1;verticalAlign=top;shape=mxgraph.electrical.resistors.resistor_2;" vertex="1" parent="1">
          <mxGeometry x="440" y="830" width="80" height="20" as="geometry" />
        </mxCell>
        <mxCell id="somkCivLxH3RYsjKFjZh-9" value="" style="pointerEvents=1;verticalLabelPosition=bottom;shadow=0;dashed=0;align=center;html=1;verticalAlign=top;shape=mxgraph.electrical.resistors.resistor_2;" vertex="1" parent="1">
          <mxGeometry x="440" y="870" width="80" height="20" as="geometry" />
        </mxCell>
        <mxCell id="somkCivLxH3RYsjKFjZh-12" value="" style="pointerEvents=1;verticalLabelPosition=bottom;shadow=0;dashed=0;align=center;html=1;verticalAlign=top;shape=mxgraph.electrical.resistors.resistor_2;" vertex="1" parent="1">
          <mxGeometry x="240" y="710" width="80" height="20" as="geometry" />
        </mxCell>
        <mxCell id="somkCivLxH3RYsjKFjZh-14" value="" style="pointerEvents=1;verticalLabelPosition=bottom;shadow=0;dashed=0;align=center;html=1;verticalAlign=top;shape=mxgraph.electrical.resistors.resistor_2;" vertex="1" parent="1">
          <mxGeometry x="240" y="790" width="80" height="20" as="geometry" />
        </mxCell>
        <mxCell id="somkCivLxH3RYsjKFjZh-16" value="" style="pointerEvents=1;verticalLabelPosition=bottom;shadow=0;dashed=0;align=center;html=1;verticalAlign=top;shape=mxgraph.electrical.resistors.resistor_2;" vertex="1" parent="1">
          <mxGeometry x="240" y="870" width="80" height="20" as="geometry" />
        </mxCell>
        <mxCell id="somkCivLxH3RYsjKFjZh-17" value="&lt;font style=&quot;font-size: 24px;&quot;&gt;FPGA&lt;/font&gt;" style="rounded=0;whiteSpace=wrap;html=1;" vertex="1" parent="1">
          <mxGeometry x="320" y="600" width="120" height="360" as="geometry" />
        </mxCell>
        <mxCell id="somkCivLxH3RYsjKFjZh-18" value="" style="pointerEvents=1;fillColor=strokeColor;verticalLabelPosition=bottom;shadow=0;dashed=0;align=center;html=1;verticalAlign=top;shape=mxgraph.electrical.diodes.diode;rotation=-180;" vertex="1" parent="1">
          <mxGeometry x="520" y="630" width="40" height="20" as="geometry" />
        </mxCell>
        <mxCell id="somkCivLxH3RYsjKFjZh-19" value="" style="pointerEvents=1;fillColor=strokeColor;verticalLabelPosition=bottom;shadow=0;dashed=0;align=center;html=1;verticalAlign=top;shape=mxgraph.electrical.diodes.diode;rotation=-180;" vertex="1" parent="1">
          <mxGeometry x="520" y="670" width="40" height="20" as="geometry" />
        </mxCell>
        <mxCell id="somkCivLxH3RYsjKFjZh-20" value="" style="pointerEvents=1;fillColor=strokeColor;verticalLabelPosition=bottom;shadow=0;dashed=0;align=center;html=1;verticalAlign=top;shape=mxgraph.electrical.diodes.diode;rotation=-180;" vertex="1" parent="1">
          <mxGeometry x="520" y="710" width="40" height="20" as="geometry" />
        </mxCell>
        <mxCell id="somkCivLxH3RYsjKFjZh-21" value="" style="pointerEvents=1;fillColor=strokeColor;verticalLabelPosition=bottom;shadow=0;dashed=0;align=center;html=1;verticalAlign=top;shape=mxgraph.electrical.diodes.diode;rotation=-180;" vertex="1" parent="1">
          <mxGeometry x="520" y="750" width="40" height="20" as="geometry" />
        </mxCell>
        <mxCell id="somkCivLxH3RYsjKFjZh-22" value="" style="pointerEvents=1;fillColor=strokeColor;verticalLabelPosition=bottom;shadow=0;dashed=0;align=center;html=1;verticalAlign=top;shape=mxgraph.electrical.diodes.diode;rotation=-180;" vertex="1" parent="1">
          <mxGeometry x="520" y="790" width="40" height="20" as="geometry" />
        </mxCell>
        <mxCell id="somkCivLxH3RYsjKFjZh-23" value="" style="pointerEvents=1;fillColor=strokeColor;verticalLabelPosition=bottom;shadow=0;dashed=0;align=center;html=1;verticalAlign=top;shape=mxgraph.electrical.diodes.diode;rotation=-180;" vertex="1" parent="1">
          <mxGeometry x="520" y="830" width="40" height="20" as="geometry" />
        </mxCell>
        <mxCell id="somkCivLxH3RYsjKFjZh-24" value="" style="pointerEvents=1;fillColor=strokeColor;verticalLabelPosition=bottom;shadow=0;dashed=0;align=center;html=1;verticalAlign=top;shape=mxgraph.electrical.diodes.diode;rotation=-180;" vertex="1" parent="1">
          <mxGeometry x="520" y="870" width="40" height="20" as="geometry" />
        </mxCell>
        <mxCell id="somkCivLxH3RYsjKFjZh-26" value="V&lt;sub&gt;dd&lt;/sub&gt;" style="verticalLabelPosition=top;verticalAlign=bottom;shape=mxgraph.electrical.signal_sources.vdd;shadow=0;dashed=0;align=center;strokeWidth=1;fontSize=24;html=1;flipV=1;" vertex="1" parent="1">
          <mxGeometry x="110" y="570" width="20" height="10" as="geometry" />
        </mxCell>
        <mxCell id="somkCivLxH3RYsjKFjZh-27" value="" style="html=1;shape=mxgraph.electrical.electro-mechanical.twoWaySwitch;aspect=fixed;elSwitchState=2;rotation=-180;" vertex="1" parent="1">
          <mxGeometry x="163.16" y="626.69" width="76.84" height="26.63" as="geometry" />
        </mxCell>
        <mxCell id="somkCivLxH3RYsjKFjZh-28" value="" style="html=1;shape=mxgraph.electrical.electro-mechanical.twoWaySwitch;aspect=fixed;elSwitchState=2;rotation=-180;" vertex="1" parent="1">
          <mxGeometry x="163.16" y="704.6800000000001" width="76.84" height="26.63" as="geometry" />
        </mxCell>
        <mxCell id="somkCivLxH3RYsjKFjZh-29" value="" style="html=1;shape=mxgraph.electrical.electro-mechanical.twoWaySwitch;aspect=fixed;elSwitchState=2;rotation=-180;" vertex="1" parent="1">
          <mxGeometry x="163.16" y="786.6800000000001" width="76.84" height="26.63" as="geometry" />
        </mxCell>
        <mxCell id="somkCivLxH3RYsjKFjZh-30" value="" style="html=1;shape=mxgraph.electrical.electro-mechanical.twoWaySwitch;aspect=fixed;elSwitchState=2;rotation=-180;" vertex="1" parent="1">
          <mxGeometry x="163.16" y="866.6900000000002" width="76.84" height="26.63" as="geometry" />
        </mxCell>
        <mxCell id="somkCivLxH3RYsjKFjZh-34" style="edgeStyle=orthogonalEdgeStyle;rounded=0;orthogonalLoop=1;jettySize=auto;html=1;exitX=1;exitY=0.88;exitDx=0;exitDy=0;entryX=0.5;entryY=0;entryDx=0;entryDy=0;entryPerimeter=0;endArrow=none;endFill=0;" edge="1" parent="1" source="somkCivLxH3RYsjKFjZh-27" target="somkCivLxH3RYsjKFjZh-26">
          <mxGeometry relative="1" as="geometry" />
        </mxCell>
        <mxCell id="somkCivLxH3RYsjKFjZh-35" style="edgeStyle=orthogonalEdgeStyle;rounded=0;orthogonalLoop=1;jettySize=auto;html=1;endArrow=none;endFill=0;exitX=1;exitY=0.88;exitDx=0;exitDy=0;entryX=0.5;entryY=0;entryDx=0;entryDy=0;entryPerimeter=0;" edge="1" parent="1" source="somkCivLxH3RYsjKFjZh-28" target="somkCivLxH3RYsjKFjZh-26">
          <mxGeometry relative="1" as="geometry">
            <mxPoint x="160" y="710" as="sourcePoint" />
            <mxPoint x="120" y="590" as="targetPoint" />
          </mxGeometry>
        </mxCell>
        <mxCell id="somkCivLxH3RYsjKFjZh-36" style="edgeStyle=orthogonalEdgeStyle;rounded=0;orthogonalLoop=1;jettySize=auto;html=1;endArrow=none;endFill=0;exitX=1;exitY=0.88;exitDx=0;exitDy=0;entryX=0.5;entryY=0;entryDx=0;entryDy=0;entryPerimeter=0;" edge="1" parent="1" source="somkCivLxH3RYsjKFjZh-29" target="somkCivLxH3RYsjKFjZh-26">
          <mxGeometry relative="1" as="geometry">
            <mxPoint x="173" y="718" as="sourcePoint" />
            <mxPoint x="130" y="590" as="targetPoint" />
          </mxGeometry>
        </mxCell>
        <mxCell id="somkCivLxH3RYsjKFjZh-37" style="edgeStyle=orthogonalEdgeStyle;rounded=0;orthogonalLoop=1;jettySize=auto;html=1;endArrow=none;endFill=0;exitX=1;exitY=0.88;exitDx=0;exitDy=0;entryX=0.5;entryY=0;entryDx=0;entryDy=0;entryPerimeter=0;" edge="1" parent="1" source="somkCivLxH3RYsjKFjZh-30" target="somkCivLxH3RYsjKFjZh-26">
          <mxGeometry relative="1" as="geometry">
            <mxPoint x="173" y="800" as="sourcePoint" />
            <mxPoint x="130" y="590" as="targetPoint" />
          </mxGeometry>
        </mxCell>
        <mxCell id="somkCivLxH3RYsjKFjZh-38" value="V&lt;sub&gt;dd&lt;/sub&gt;" style="verticalLabelPosition=top;verticalAlign=bottom;shape=mxgraph.electrical.signal_sources.vdd;shadow=0;dashed=0;align=center;strokeWidth=1;fontSize=24;html=1;flipV=1;" vertex="1" parent="1">
          <mxGeometry x="590" y="590" width="20" height="10" as="geometry" />
        </mxCell>
        <mxCell id="somkCivLxH3RYsjKFjZh-39" style="edgeStyle=orthogonalEdgeStyle;rounded=0;orthogonalLoop=1;jettySize=auto;html=1;exitX=0;exitY=0.5;exitDx=0;exitDy=0;entryX=0.5;entryY=0;entryDx=0;entryDy=0;entryPerimeter=0;endArrow=none;endFill=0;exitPerimeter=0;" edge="1" parent="1" target="somkCivLxH3RYsjKFjZh-38" source="somkCivLxH3RYsjKFjZh-18">
          <mxGeometry relative="1" as="geometry">
            <mxPoint x="643" y="650" as="sourcePoint" />
          </mxGeometry>
        </mxCell>
        <mxCell id="somkCivLxH3RYsjKFjZh-40" style="edgeStyle=orthogonalEdgeStyle;rounded=0;orthogonalLoop=1;jettySize=auto;html=1;endArrow=none;endFill=0;exitX=0;exitY=0.5;exitDx=0;exitDy=0;entryX=0.5;entryY=0;entryDx=0;entryDy=0;entryPerimeter=0;exitPerimeter=0;" edge="1" parent="1" target="somkCivLxH3RYsjKFjZh-38" source="somkCivLxH3RYsjKFjZh-19">
          <mxGeometry relative="1" as="geometry">
            <mxPoint x="643" y="728" as="sourcePoint" />
            <mxPoint x="600" y="610" as="targetPoint" />
          </mxGeometry>
        </mxCell>
        <mxCell id="somkCivLxH3RYsjKFjZh-41" style="edgeStyle=orthogonalEdgeStyle;rounded=0;orthogonalLoop=1;jettySize=auto;html=1;endArrow=none;endFill=0;exitX=0;exitY=0.5;exitDx=0;exitDy=0;entryX=0.5;entryY=0;entryDx=0;entryDy=0;entryPerimeter=0;exitPerimeter=0;" edge="1" parent="1" target="somkCivLxH3RYsjKFjZh-38" source="somkCivLxH3RYsjKFjZh-20">
          <mxGeometry relative="1" as="geometry">
            <mxPoint x="643" y="810" as="sourcePoint" />
            <mxPoint x="610" y="610" as="targetPoint" />
          </mxGeometry>
        </mxCell>
        <mxCell id="somkCivLxH3RYsjKFjZh-42" style="edgeStyle=orthogonalEdgeStyle;rounded=0;orthogonalLoop=1;jettySize=auto;html=1;endArrow=none;endFill=0;exitX=0;exitY=0.5;exitDx=0;exitDy=0;entryX=0.5;entryY=0;entryDx=0;entryDy=0;entryPerimeter=0;exitPerimeter=0;" edge="1" parent="1" target="somkCivLxH3RYsjKFjZh-38" source="somkCivLxH3RYsjKFjZh-21">
          <mxGeometry relative="1" as="geometry">
            <mxPoint x="643" y="890" as="sourcePoint" />
            <mxPoint x="610" y="610" as="targetPoint" />
          </mxGeometry>
        </mxCell>
        <mxCell id="somkCivLxH3RYsjKFjZh-43" style="edgeStyle=orthogonalEdgeStyle;rounded=0;orthogonalLoop=1;jettySize=auto;html=1;exitX=0;exitY=0.5;exitDx=0;exitDy=0;entryX=0.5;entryY=0;entryDx=0;entryDy=0;entryPerimeter=0;endArrow=none;endFill=0;exitPerimeter=0;" edge="1" parent="1" source="somkCivLxH3RYsjKFjZh-22" target="somkCivLxH3RYsjKFjZh-38">
          <mxGeometry relative="1" as="geometry">
            <mxPoint x="570" y="650" as="sourcePoint" />
            <mxPoint x="610" y="610" as="targetPoint" />
          </mxGeometry>
        </mxCell>
        <mxCell id="somkCivLxH3RYsjKFjZh-44" style="edgeStyle=orthogonalEdgeStyle;rounded=0;orthogonalLoop=1;jettySize=auto;html=1;endArrow=none;endFill=0;exitX=0;exitY=0.5;exitDx=0;exitDy=0;entryX=0.5;entryY=0;entryDx=0;entryDy=0;entryPerimeter=0;exitPerimeter=0;" edge="1" parent="1" source="somkCivLxH3RYsjKFjZh-23" target="somkCivLxH3RYsjKFjZh-38">
          <mxGeometry relative="1" as="geometry">
            <mxPoint x="570" y="690" as="sourcePoint" />
            <mxPoint x="610" y="610" as="targetPoint" />
          </mxGeometry>
        </mxCell>
        <mxCell id="somkCivLxH3RYsjKFjZh-45" style="edgeStyle=orthogonalEdgeStyle;rounded=0;orthogonalLoop=1;jettySize=auto;html=1;endArrow=none;endFill=0;exitX=0;exitY=0.5;exitDx=0;exitDy=0;entryX=0.5;entryY=0;entryDx=0;entryDy=0;entryPerimeter=0;exitPerimeter=0;" edge="1" parent="1" source="somkCivLxH3RYsjKFjZh-24" target="somkCivLxH3RYsjKFjZh-38">
          <mxGeometry relative="1" as="geometry">
            <mxPoint x="570" y="730" as="sourcePoint" />
            <mxPoint x="610" y="610" as="targetPoint" />
          </mxGeometry>
        </mxCell>
        <mxCell id="somkCivLxH3RYsjKFjZh-47" value="" style="pointerEvents=1;verticalLabelPosition=bottom;shadow=0;dashed=0;align=center;html=1;verticalAlign=top;shape=mxgraph.electrical.signal_sources.protective_earth;" vertex="1" parent="1">
          <mxGeometry x="130" y="920" width="25" height="20" as="geometry" />
        </mxCell>
        <mxCell id="somkCivLxH3RYsjKFjZh-48" style="edgeStyle=orthogonalEdgeStyle;rounded=0;orthogonalLoop=1;jettySize=auto;html=1;exitX=1;exitY=0.12;exitDx=0;exitDy=0;entryX=0.5;entryY=0;entryDx=0;entryDy=0;entryPerimeter=0;endArrow=none;endFill=0;" edge="1" parent="1" source="somkCivLxH3RYsjKFjZh-27" target="somkCivLxH3RYsjKFjZh-47">
          <mxGeometry relative="1" as="geometry">
            <mxPoint x="173" y="640" as="sourcePoint" />
            <mxPoint x="130" y="590" as="targetPoint" />
          </mxGeometry>
        </mxCell>
        <mxCell id="somkCivLxH3RYsjKFjZh-49" style="edgeStyle=orthogonalEdgeStyle;rounded=0;orthogonalLoop=1;jettySize=auto;html=1;exitX=1;exitY=0.12;exitDx=0;exitDy=0;entryX=0.5;entryY=0;entryDx=0;entryDy=0;entryPerimeter=0;endArrow=none;endFill=0;" edge="1" parent="1" source="somkCivLxH3RYsjKFjZh-28" target="somkCivLxH3RYsjKFjZh-47">
          <mxGeometry relative="1" as="geometry">
            <mxPoint x="173" y="660" as="sourcePoint" />
            <mxPoint x="153" y="930" as="targetPoint" />
          </mxGeometry>
        </mxCell>
        <mxCell id="somkCivLxH3RYsjKFjZh-50" style="edgeStyle=orthogonalEdgeStyle;rounded=0;orthogonalLoop=1;jettySize=auto;html=1;exitX=1;exitY=0.12;exitDx=0;exitDy=0;entryX=0.5;entryY=0;entryDx=0;entryDy=0;entryPerimeter=0;endArrow=none;endFill=0;" edge="1" parent="1" source="somkCivLxH3RYsjKFjZh-29" target="somkCivLxH3RYsjKFjZh-47">
          <mxGeometry relative="1" as="geometry">
            <mxPoint x="183" y="670" as="sourcePoint" />
            <mxPoint x="163" y="940" as="targetPoint" />
          </mxGeometry>
        </mxCell>
        <mxCell id="somkCivLxH3RYsjKFjZh-51" style="edgeStyle=orthogonalEdgeStyle;rounded=0;orthogonalLoop=1;jettySize=auto;html=1;exitX=1;exitY=0.12;exitDx=0;exitDy=0;entryX=0.5;entryY=0;entryDx=0;entryDy=0;entryPerimeter=0;endArrow=none;endFill=0;" edge="1" parent="1" source="somkCivLxH3RYsjKFjZh-30" target="somkCivLxH3RYsjKFjZh-47">
          <mxGeometry relative="1" as="geometry">
            <mxPoint x="193" y="680" as="sourcePoint" />
            <mxPoint x="173" y="950" as="targetPoint" />
          </mxGeometry>
        </mxCell>
        <mxCell id="somkCivLxH3RYsjKFjZh-52" value="" style="verticalLabelPosition=bottom;shadow=0;dashed=0;align=center;html=1;verticalAlign=top;shape=mxgraph.electrical.opto_electronics.7_segment_display;pointerEvents=1;" vertex="1" parent="1">
          <mxGeometry x="630" y="731.95" width="74.7" height="96.1" as="geometry" />
        </mxCell>
        <mxCell id="somkCivLxH3RYsjKFjZh-53" value="a" style="text;strokeColor=none;align=center;fillColor=none;html=1;verticalAlign=middle;whiteSpace=wrap;rounded=0;" vertex="1" parent="1">
          <mxGeometry x="647" y="724" width="50" height="30" as="geometry" />
        </mxCell>
        <mxCell id="somkCivLxH3RYsjKFjZh-54" value="b" style="text;strokeColor=none;align=center;fillColor=none;html=1;verticalAlign=middle;whiteSpace=wrap;rounded=0;" vertex="1" parent="1">
          <mxGeometry x="671" y="743" width="50" height="30" as="geometry" />
        </mxCell>
        <mxCell id="somkCivLxH3RYsjKFjZh-55" value="c" style="text;strokeColor=none;align=center;fillColor=none;html=1;verticalAlign=middle;whiteSpace=wrap;rounded=0;" vertex="1" parent="1">
          <mxGeometry x="666" y="785" width="50" height="30" as="geometry" />
        </mxCell>
        <mxCell id="somkCivLxH3RYsjKFjZh-56" value="d" style="text;strokeColor=none;align=center;fillColor=none;html=1;verticalAlign=middle;whiteSpace=wrap;rounded=0;" vertex="1" parent="1">
          <mxGeometry x="637" y="806.68" width="50" height="30" as="geometry" />
        </mxCell>
        <mxCell id="somkCivLxH3RYsjKFjZh-57" value="g" style="text;strokeColor=none;align=center;fillColor=none;html=1;verticalAlign=middle;whiteSpace=wrap;rounded=0;" vertex="1" parent="1">
          <mxGeometry x="515" y="850" width="50" height="30" as="geometry" />
        </mxCell>
        <mxCell id="somkCivLxH3RYsjKFjZh-58" value="f" style="text;strokeColor=none;align=center;fillColor=none;html=1;verticalAlign=middle;whiteSpace=wrap;rounded=0;" vertex="1" parent="1">
          <mxGeometry x="515" y="810" width="50" height="30" as="geometry" />
        </mxCell>
        <mxCell id="somkCivLxH3RYsjKFjZh-59" value="e" style="text;strokeColor=none;align=center;fillColor=none;html=1;verticalAlign=middle;whiteSpace=wrap;rounded=0;" vertex="1" parent="1">
          <mxGeometry x="515" y="770" width="50" height="30" as="geometry" />
        </mxCell>
        <mxCell id="somkCivLxH3RYsjKFjZh-60" value="d" style="text;strokeColor=none;align=center;fillColor=none;html=1;verticalAlign=middle;whiteSpace=wrap;rounded=0;" vertex="1" parent="1">
          <mxGeometry x="515" y="731.95" width="50" height="30" as="geometry" />
        </mxCell>
        <mxCell id="somkCivLxH3RYsjKFjZh-61" value="c" style="text;strokeColor=none;align=center;fillColor=none;html=1;verticalAlign=middle;whiteSpace=wrap;rounded=0;" vertex="1" parent="1">
          <mxGeometry x="515" y="690" width="50" height="30" as="geometry" />
        </mxCell>
        <mxCell id="somkCivLxH3RYsjKFjZh-62" value="b" style="text;strokeColor=none;align=center;fillColor=none;html=1;verticalAlign=middle;whiteSpace=wrap;rounded=0;" vertex="1" parent="1">
          <mxGeometry x="515" y="650" width="50" height="30" as="geometry" />
        </mxCell>
        <mxCell id="somkCivLxH3RYsjKFjZh-63" value="a" style="text;strokeColor=none;align=center;fillColor=none;html=1;verticalAlign=middle;whiteSpace=wrap;rounded=0;" vertex="1" parent="1">
          <mxGeometry x="515" y="610" width="50" height="30" as="geometry" />
        </mxCell>
        <mxCell id="somkCivLxH3RYsjKFjZh-67" value="e" style="text;strokeColor=none;align=center;fillColor=none;html=1;verticalAlign=middle;whiteSpace=wrap;rounded=0;" vertex="1" parent="1">
          <mxGeometry x="615" y="785" width="50" height="30" as="geometry" />
        </mxCell>
        <mxCell id="somkCivLxH3RYsjKFjZh-68" value="f" style="text;strokeColor=none;align=center;fillColor=none;html=1;verticalAlign=middle;whiteSpace=wrap;rounded=0;" vertex="1" parent="1">
          <mxGeometry x="621" y="745" width="50" height="30" as="geometry" />
        </mxCell>
        <mxCell id="somkCivLxH3RYsjKFjZh-69" value="g" style="text;strokeColor=none;align=center;fillColor=none;html=1;verticalAlign=middle;whiteSpace=wrap;rounded=0;" vertex="1" parent="1">
          <mxGeometry x="642.35" y="764" width="50" height="30" as="geometry" />
        </mxCell>
      </root>
    </mxGraphModel>
  </diagram>
</mxfile>
